<?xml version="1.0"?>
<svg version="1.1" xmlns="http://www.w3.org/2000/svg" width="60px" height="50px" style=""><path fill="#d16221" d="M22.302734375,41.19140625q-1.025390625,0-1.787109375-0.21484375l0-2.51953125q0.78125,0.1953125,1.42578125,0.1953125q0.99609375,0,1.42578125-0.6201171875t0.4296875-1.9384765625l0-13.37890625l3.02734375,0l0,13.359375q0,2.5-1.142578125,3.80859375t-3.37890625,1.30859375z M30.29853515625,41.19140625q-1.025390625,0-1.787109375-0.21484375l0-2.51953125q0.78125,0.1953125,1.42578125,0.1953125q0.99609375,0,1.42578125-0.6201171875t0.4296875-1.9384765625l0-13.37890625l3.02734375,0l0,13.359375q0,2.5-1.142578125,3.80859375t-3.37890625,1.30859375z"/><path fill="#" d=""/></svg>
